{"title":"Criminal (2016) 720p Blu-ray x264 AAC 5.1 Hindi ESub -DDR","uid":15787989,"size":716838058,"categoryP":"video","categoryS":"hd___movies","magnet":"?xt=urn:btih:643374956ec528fb43984e37967c92c3e8ad5526&amp;dn=Criminal+%282016%29+720p+Blu-ray+x264+AAC+5.1+Hindi+ESub+-DDR&amp;tr=udp%3A%2F%2Ftracker.leechers-paradise.org%3A6969&amp;tr=udp%3A%2F%2Fzer0day.ch%3A1337&amp;tr=udp%3A%2F%2Fopen.demonii.com%3A1337&amp;tr=udp%3A%2F%2Ftracker.coppersurfer.tk%3A6969&amp;tr=udp%3A%2F%2Fexodus.desync.com%3A6969","seeders":30,"leechers":23,"uploader":"SaM","files":3,"time":1473349235,"description":"\n720p Blu-ray Rip x264\r\n\r\nHindi AAC 5.1 Original Audio\r\n\r\n\r\n\r\nEnglish SDH Subtitle \r\n \nhttp://extraimago.com/image/wmyr \nhttp://extraimago.com/image/wmyp \nhttp://extraimago.com/image/wmyY \nhttp://extraimago.com/image/wmyC \nhttp://extraimago.com/image/wmyB \nhttp://extraimago.com/image/wmy4 \nhttp://extraimago.com/image/wmye \nhttp://extraimago.com/image/wmyZ \nhttp://extraimago.com/image/wmyK \nhttp://extraimago.com/image/wmyJ \nhttp://extraimago.com/image/wmy0\r\n\r\nSpecs:\r\nSource: BD50 @ DDR\r\n\r\nFormat : Matroska\r\nFile size : 672 MiB\r\nDuration : 1 h 53 min\r\nOverall bit rate : 828 kb/s\r\n\r\nVideo\r\nID : 1\r\nFormat : AVC\r\nFormat/Info : Advanced Video Codec\r\nFormat profile :   \r\nFormat settings, CABAC : Yes\r\nFormat settings, ReFrames : 12 frames\r\nCodec ID : V_MPEG4/ISO/AVC\r\nDuration : 1 h 53 min\r\nBit rate : 669 kb/s\r\nWidth : 1 280 pixels\r\nHeight : 534 pixels\r\nDisplay aspect ratio : 2.40:1\r\nFrame rate mode : Constant\r\nFrame rate : 23.976 (24000/1001) FPS\r\nColor space : YUV\r\nChroma subsampling : 4:2:0\r\nBit depth : 8 bits\r\nScan type : Progressive\r\nBits/(Pixel*Frame) : 0.041\r\nStream size : 543 MiB (81%)\r\nLanguage : English\r\nDefault : Yes\r\nForced : No\r\nColor range : Limited\r\nColor primaries : BT.709\r\nTransfer characteristics : BT.709\r\nMatrix coefficients : BT.709\r\n\r\nAudio\r\nID : 3\r\nFormat : AAC\r\nFormat/Info : Advanced Audio Codec\r\nFormat profile : LC\r\nCodec ID : A_AAC\r\nDuration : 1 h 48 min\r\nBit rate : 160 kb/s\r\nChannel(s) : 6 channels\r\nChannel positions : Front: L C R, Side: L R, LFE\r\nSampling rate : 48.0 kHz\r\nFrame rate : 46.875 FPS (1024 spf)\r\nCompression mode : Lossy\r\nDelay relative to video : 9 ms\r\nStream size : 124 MiB (18%)\r\nLanguage : Hindi\r\nDefault : Yes\r\nForced : No\r\n\r\nChapters = YES\r\n\r\n\r\nSAMPLE Included","torrent":{"xt":"urn:btih:643374956ec528fb43984e37967c92c3e8ad5526","amp;dn":"Criminal+%282016%29+720p+Blu-ray+x264+AAC+5.1+Hindi+ESub+-DDR","amp;tr":["udp%3A%2F%2Ftracker.leechers-paradise.org%3A6969","udp%3A%2F%2Fzer0day.ch%3A1337","udp%3A%2F%2Fopen.demonii.com%3A1337","udp%3A%2F%2Ftracker.coppersurfer.tk%3A6969","udp%3A%2F%2Fexodus.desync.com%3A6969"],"infoHash":"643374956ec528fb43984e37967c92c3e8ad5526","infoHashBuffer":{"type":"Buffer","data":[100,51,116,149,110,197,40,251,67,152,78,55,150,124,146,195,232,173,85,38]},"announce":[],"urlList":[]}}